<svg id="Capa_1" enable-background="new 0 0 512 512" height="512" viewBox="0 0 512 512" width="512" xmlns="http://www.w3.org/2000/svg" xmlns:xlink="http://www.w3.org/1999/xlink"><linearGradient id="lg1"><stop offset="0" stop-color="#cc8241"/><stop offset="1" stop-color="#dea861"/></linearGradient><linearGradient id="SVGID_1_" gradientUnits="userSpaceOnUse" x1="221.854" x2="264.803" xlink:href="#lg1" y1="329.135" y2="329.135"/><linearGradient id="SVGID_2_" gradientUnits="userSpaceOnUse" x1="1.588" x2="409.599" y1="33.588" y2="282.42"><stop offset="0" stop-color="#dea861"/><stop offset=".328" stop-color="#e3b67b"/><stop offset=".7518" stop-color="#e9c596"/><stop offset="1" stop-color="#ebcba0"/></linearGradient><linearGradient id="SVGID_3_" gradientUnits="userSpaceOnUse" x1="302.793" x2="157.998" xlink:href="#lg1" y1="188.338" y2="188.338"/><g><path d="m414.78 376.429v-194.795l-312.652 13.407v194.795c-.001 4.464 2.208 8.927 6.626 11.478l123.854 71.507c8.809 5.086 19.661 5.086 28.47 0l147.076-84.914c4.418-2.55 6.627-7.014 6.626-11.478z" fill="url(#SVGID_1_)"/><path d="m504.326 228.713-73.655-42.525c-2.43-1.403-2.439-4.907-.017-6.323l74.722-43.678c8.673-5.007 8.869-17.456.358-22.734l-119.031-73.814c-8.916-5.529-20.151-5.706-29.237-.46l-75.018 43.84c-6.827 3.99-15.269 4.012-22.117.058l-74.988-43.294c-10.525-6.077-23.54-5.872-33.869.533l-137.886 85.507c-9.859 6.114-9.632 20.535.415 26.336l68.896 39.777c2.435 1.405 2.438 4.918.007 6.329l-76.28 44.26c-8.833 5.1-8.833 17.849 0 22.949l123.859 71.51c8.808 5.085 19.66 5.085 28.468 0l72.231-41.91c6.818-3.956 15.231-3.965 22.058-.024l74.628 43.086c10.203 5.891 22.774 5.891 32.978 0l143.48-82.838c10.23-5.909 10.23-20.678-.002-26.585z" fill="url(#SVGID_2_)"/><path d="m108.754 183.565 147.076-84.914c8.809-5.086 19.661-5.086 28.47 0l123.854 71.507c8.835 5.101 8.835 17.852 0 22.953l-147.076 84.914c-8.809 5.086-19.661 5.086-28.47 0l-123.854-71.507c-8.834-5.101-8.834-17.852 0-22.953z" fill="url(#SVGID_3_)"/><g fill="#5d3645"><path d="m404.317 353.603-13.893-20.84-13.894 36.882 7.316-4.224v12.494l13.155-7.595v-12.494z"/><path d="m404.317 369.233-27.787 16.043v6.758l27.787-16.043z"/></g></g></svg>