<svg id="Layer_5" enable-background="new 0 0 64 64" height="512" viewBox="0 0 64 64" width="512" xmlns="http://www.w3.org/2000/svg" xmlns:xlink="http://www.w3.org/1999/xlink"><linearGradient id="SVGID_1_" gradientUnits="userSpaceOnUse" x1="32" x2="32" y1="63" y2="1"><stop offset="0" stop-color="#9f2fff"/><stop offset="1" stop-color="#0bb1d3"/></linearGradient><path d="m53 33.875v-22.875-2-3c0-2.757-2.243-5-5-5h-18c-2.757 0-5 2.243-5 5v3h-19c-2.757 0-5 2.243-5 5v24c0 2.757 2.243 5 5 5h27.875c-.556 1.567-.875 3.245-.875 5 0 8.271 6.729 15 15 15s15-6.729 15-15c0-6.516-4.183-12.059-10-14.125zm-5-.875c-.338 0-.668.029-1 .051v-6.051h-8v8h1.548c-.98.564-1.887 1.237-2.712 2h-22.836v-22h34c.732 0 1.409-.212 2-.556v18.859c-.97-.198-1.973-.303-3-.303zm-7 0v-4h4v4zm-14-27c0-1.654 1.346-3 3-3h18c1.654 0 3 1.346 3 3s-1.346 3-3 3h-21zm-24 32v-24c0-1.654 1.346-3 3-3h3v30h-3c-1.654 0-3-1.346-3-3zm8 3v-30h37c1.13 0 2.162-.391 3-1.026v1.026c0 1.103-.897 2-2 2h-36v26h23.028c-.477.632-.912 1.296-1.285 2zm28.04 16.395c.315-4.665 4.242-8.395 8.96-8.395 4.717 0 8.644 3.73 8.96 8.395-2.334 2.227-5.486 3.605-8.96 3.605s-6.626-1.378-8.96-3.605zm4.96-14.395c0-2.206 1.794-4 4-4s4 1.794 4 4-1.794 4-4 4-4-1.794-4-4zm14.671 12.405c-.878-3.573-3.52-6.47-6.926-7.725 1.373-1.1 2.255-2.788 2.255-4.68 0-3.309-2.691-6-6-6s-6 2.691-6 6c0 1.892.882 3.58 2.255 4.68-3.406 1.255-6.048 4.152-6.926 7.725-1.464-2.103-2.329-4.654-2.329-7.405 0-7.168 5.832-13 13-13s13 5.832 13 13c0 2.752-.865 5.302-2.329 7.405zm-53.671-26.405h2v2h-2zm0-4h2v2h-2zm2-4v2h-2v-2zm12 14h8v-8h-8zm2-6h4v4h-4zm-2-4h8v-8h-8zm2-6h4v4h-4zm8 16h8v-8h-8zm2-6h4v4h-4zm-2-4h8v-8h-8zm2-6h4v4h-4zm8 6h8v-8h-8zm2-6h4v4h-4zm-8-14h2v2h-2zm4 0h2v2h-2zm-8 0h2v2h-2z" fill="url(#SVGID_1_)"/></svg>