<svg height="512" viewBox="0 0 512 512" width="512" xmlns="http://www.w3.org/2000/svg"><path d="m72 152h368a32 32 0 0 1 32 32v248a24 24 0 0 1 -24 24h-384a24 24 0 0 1 -24-24v-248a32 32 0 0 1 32-32z" fill="#348fd9"/><path d="m430.64 65.36a32.2 32.2 0 0 0 -22.64-9.36h-304a31.991 31.991 0 0 0 -32 32v376h368v-376a32.2 32.2 0 0 0 -9.36-22.64z" fill="#60d1e0"/><path d="m103.996 80h16v16h-16z" fill="#3fb7c7"/><path d="m135.996 80h16v16h-16z" fill="#3fb7c7"/><path d="m167.996 80h16v16h-16z" fill="#3fb7c7"/><path d="m104 112h200v16h-200z" fill="#3fb7c7"/><path d="m430.64 65.36a32.2 32.2 0 0 0 -22.64-9.36h-304a31.991 31.991 0 0 0 -32 32v376h368v-376a32.2 32.2 0 0 0 -9.36-22.64z" fill="#60d1e0"/><path d="m103.996 80h16v16h-16z" fill="#3fb7c7"/><path d="m135.996 80h16v16h-16z" fill="#3fb7c7"/><path d="m167.996 80h16v16h-16z" fill="#3fb7c7"/><path d="m104 112h200v16h-200z" fill="#3fb7c7"/><path d="m440 160-304 304h304z" fill="#5ac6d4"/><path d="m304 448a27.315 27.315 0 0 1 -19.314 8h-57.372a27.315 27.315 0 0 1 -19.314-8 27.315 27.315 0 0 0 -19.314-8h-164.686v24a24 24 0 0 0 24 24h416a24 24 0 0 0 24-24v-24h-164.686a27.315 27.315 0 0 0 -19.314 8z" fill="#e0e0de"/><path d="m456 440v24a24 24 0 0 1 -24 24h32a24 24 0 0 0 24-24v-24z" fill="#d6d6d4"/><path d="m440 240h32v16h-32z" fill="#3086cd"/><path d="m40 376h32v16h-32z" fill="#3086cd"/><path d="m344 240h96v16h-96z" fill="#5ac6d4"/><path d="m72 328h192v64h-192z" fill="#5ac6d4"/><g fill="#348fd9"><path d="m214.484 175.5-9.2-13.086a96.753 96.753 0 0 1 15.157-8.726 96.147 96.147 0 0 1 95.265 8.726l-9.214 13.086a79.892 79.892 0 0 0 -92.008 0z"/><path d="m337.582 224.312c-22.184-20.218-51.609-31.351-82.852-31.351h-1.121a116.672 116.672 0 0 0 -65.824 20.3l-8.992-13.235a132.614 132.614 0 0 1 74.816-23.062h1.121c35.239 0 68.489 12.617 93.625 35.523z"/><path d="m356.188 338.016-15.4-4.352a83.326 83.326 0 0 0 .012-45.695 85.114 85.114 0 0 0 -12.531-26.4c-16.208-22.922-43.7-36.609-73.54-36.609h-1.121a86.474 86.474 0 0 0 -70.718 37.3l-3.836 5.512-13.133-9.141 3.836-5.512a102.494 102.494 0 0 1 83.851-44.156h1.121c35.024 0 67.4 16.219 86.61 43.383a100.818 100.818 0 0 1 14.861 31.279 99.254 99.254 0 0 1 -.012 54.391z"/><path d="m308.734 419.547-11.534-11.094a183.142 183.142 0 0 0 37.981-58.5l14.828 6.008a199.117 199.117 0 0 1 -41.275 63.586z"/><path d="m253.586 429.656-11.313-11.312 29.52-29.52a152.789 152.789 0 0 0 37.625-61.867 53.038 53.038 0 0 0 -7.945-47.836 54.5 54.5 0 0 0 -43.782-22.16h-4.082c-23.011 0-43.632 14.969-51.316 37.25a41.12 41.12 0 0 1 -9.6 15.379l-14.546 14.547-11.313-11.313 14.48-14.48a25.176 25.176 0 0 0 5.856-9.356c9.906-28.722 36.6-48.027 66.441-48.027h4.082a70.552 70.552 0 0 1 56.688 28.7 68.891 68.891 0 0 1 10.3 62.117 168.822 168.822 0 0 1 -41.571 68.356z"/><path d="m220.227 417.734-11.313-11.312 40.238-40.238a118.857 118.857 0 0 0 29.793-48.84 21.353 21.353 0 0 0 -3.234-19.231 22.124 22.124 0 0 0 -18.02-9.152h-4.082c-9.492 0-17.769 6.152-21.086 15.672a71.544 71.544 0 0 1 -17.257 27.667l-2.328 2.324-11.3-11.32 2.324-2.321a56.459 56.459 0 0 0 9.141-11.972 55.686 55.686 0 0 0 4.293-9.574c5.527-15.86 20.074-26.473 36.218-26.473h4.082a37.978 37.978 0 0 1 30.93 15.7 37.2 37.2 0 0 1 5.578 33.516 136.558 136.558 0 0 1 -33.75 55.336z"/><path d="m171.401 342.104h29.378v16.004h-29.378z" transform="matrix(.708 -.706 .706 .708 -192.937 233.736)"/><path d="m196.465 396.3-11.313-11.313 41.364-41.359a88.416 88.416 0 0 0 23.184-40.64l15.508 3.946a104.439 104.439 0 0 1 -27.375 48z"/></g><path d="m328 120h160v120h-160z" fill="#ffb531"/><path d="m344 88h32a32 32 0 0 1 32-32 32 32 0 0 1 32 32v32h32v-32a64 64 0 0 0 -64-64 64 64 0 0 0 -64 64z" fill="#e0e0de"/><path d="m420.071 178.4a16 16 0 1 0 -24.142 0 31.979 31.979 0 0 0 -19.929 29.6h64a31.979 31.979 0 0 0 -19.929-29.6z" fill="#95573a"/><path d="m328 240h160a139.5 139.5 0 0 0 -160 0z" fill="#ffa912"/><path d="m488 120h-160a139.5 139.5 0 0 0 160 0z" fill="#ffcb73"/><path d="m24 312h224v64h-224z" fill="#ffb531"/><path d="m24 312h224v16h-224z" fill="#ffa912"/><path d="m48 336h16v16h-16z" fill="#348fd9"/><path d="m80 336h16v16h-16z" fill="#348fd9"/><path d="m112 336h16v16h-16z" fill="#348fd9"/><path d="m144 336h16v16h-16z" fill="#348fd9"/></svg>