<svg id="Layer_1" enable-background="new 0 0 256 256" height="512" viewBox="0 0 256 256" width="512" xmlns="http://www.w3.org/2000/svg"><g><path d="m32.035 193.652c-7.535 0-13.665-6.13-13.665-13.665v-123.776c0-7.535 6.13-13.665 13.665-13.665h191.931c7.535 0 13.665 6.13 13.665 13.665v123.776c0 7.535-6.13 13.665-13.665 13.665z" fill="#63bce7"/><path d="m229.221 167.987c0 2.891-2.365 5.256-5.256 5.256h-191.93c-2.891 0-5.256-2.365-5.256-5.256v-111.777c0-2.891 2.365-5.256 5.256-5.256h191.931c2.891 0 5.256 2.365 5.256 5.256v111.777z" fill="#f46275"/><g><path d="m44.838 167.987v-111.777c0-2.891 2.365-5.256 5.256-5.256h-18.059c-2.891 0-5.256 2.365-5.256 5.256v111.777c0 2.891 2.365 5.256 5.256 5.256h18.059c-2.891 0-5.256-2.365-5.256-5.256z" fill="#f43075"/></g><g><path d="m211.162 167.987v-111.777c0-2.891-2.365-5.256-5.256-5.256h18.059c2.891 0 5.256 2.365 5.256 5.256v111.777c0 2.891-2.365 5.256-5.256 5.256h-18.059c2.891 0 5.256-2.365 5.256-5.256z" fill="#f48875"/></g><path d="m96.752 193.652h62.496v19.017h-62.496z" fill="#f8af23"/><g><path d="m96.752 193.652h18.059v19.017h-18.059z" fill="#f87023"/></g><g><path d="m141.19 193.652h18.059v19.017h-18.059z" fill="#f8d323"/></g><circle cx="128" cy="183.447" fill="#f8af23" r="4.5"/><path d="m178.687 228.12h-101.375v-10.45c0-2.761 2.239-5 5-5h91.375c2.761 0 5 2.239 5 5z" fill="#9e9e9e"/><g><path d="m100.371 212.669h-18.059c-2.761 0-5 2.239-5 5v10.45h18.059v-10.45c0-2.761 2.239-5 5-5z" fill="#707070"/></g><g><path d="m155.629 212.669h18.059c2.761 0 5 2.239 5 5v10.45h-18.059v-10.45c0-2.761-2.239-5-5-5z" fill="#cecece"/></g><g><g><path d="m51.362 64.746h153.275v19.323h-153.275z" fill="#63bce7"/><path d="m59 70.159h69.333v8.497h-69.333z" fill="#f8af23"/></g><g><path d="m51.362 90.496h153.275v19.323h-153.275z" fill="#63bce7"/><path d="m59 95.909h69.333v8.497h-69.333z" fill="#f8af23"/></g><g><path d="m51.362 116.246h153.275v19.323h-153.275z" fill="#63bce7"/><path d="m59 121.659h69.333v8.497h-69.333z" fill="#f8af23"/></g><g><path d="m51.362 141.996h153.275v19.323h-153.275z" fill="#63bce7"/><path d="m59 147.409h69.333v8.497h-69.333z" fill="#f8af23"/></g></g><g><circle cx="175.057" cy="50.202" fill="#f8af23" r="33.867"/><g><path d="m186.51 32.718-17.817 20.338-5.839-4.717c-2.6-2.099-6.41-1.698-8.511.893-2.104 2.586-1.705 6.385.891 8.484l14.904 12.033 25.489-29.093c2.199-2.509 1.94-6.321-.579-8.513-2.514-2.189-6.342-1.934-8.538.575z" fill="#f46275"/><g fill="#3f3679"><path d="m32.035 195.151h63.217v16.018h-12.94c-3.584 0-6.5 2.916-6.5 6.5v8.95h-48.112c-.829 0-1.5.672-1.5 1.5s.671 1.5 1.5 1.5h49.612 101.375 49.613c.828 0 1.5-.672 1.5-1.5s-.672-1.5-1.5-1.5h-48.112v-8.95c0-3.584-2.916-6.5-6.5-6.5h-12.939v-16.018h63.218c8.361 0 15.164-6.803 15.164-15.164v-123.776c0-8.362-6.803-15.165-15.164-15.165h-14.751c-4.045-15.077-17.823-26.211-34.159-26.211s-30.113 11.134-34.159 26.211h-108.863c-8.362 0-15.165 6.803-15.165 15.165v123.776c0 8.362 6.803 15.164 15.165 15.164zm145.152 22.518v8.95h-98.375v-8.95c0-1.93 1.57-3.5 3.5-3.5h14.439 62.496 14.439c1.931 0 3.501 1.57 3.501 3.5zm-19.439-6.5h-59.496v-16.018h59.496zm66.218-158.714c2.07 0 3.755 1.685 3.755 3.755v111.777c0 2.071-1.685 3.756-3.755 3.756h-191.931c-2.071 0-3.756-1.685-3.756-3.756v-111.777c0-2.07 1.685-3.755 3.756-3.755h107.734c.24 3.789 1.08 7.416 2.424 10.791h-90.831c-.829 0-1.5.672-1.5 1.5v19.323c0 .828.671 1.5 1.5 1.5h153.275c.828 0 1.5-.672 1.5-1.5v-17.003c2.393-4.393 3.874-9.349 4.207-14.611zm-86.133 23.452h12.97c2.919 2.755 6.302 5.02 10.023 6.662h-107.964v-16.323h90.691c1.222 2.389 2.703 4.624 4.413 6.661h-10.134c-.828 0-1.5.672-1.5 1.5s.673 1.5 1.501 1.5zm51.455 6.662c5.487-2.422 10.244-6.195 13.85-10.901v10.901zm-14.231-64.734c17.848 0 32.367 14.52 32.367 32.367s-14.52 32.367-32.367 32.367-32.367-14.52-32.367-32.367 14.519-32.367 32.367-32.367zm-155.187 38.376c0-6.708 5.457-12.165 12.165-12.165h108.202c-.311 1.762-.49 3.568-.529 5.409h-107.673c-3.725 0-6.756 3.03-6.756 6.755v111.777c0 3.726 3.031 6.756 6.756 6.756h191.931c3.725 0 6.755-3.03 6.755-6.756v-111.777c0-3.725-3.03-6.755-6.755-6.755h-13.561c-.039-1.841-.218-3.647-.529-5.409h14.089c6.707 0 12.164 5.457 12.164 12.165v123.776c0 6.707-5.457 12.164-12.164 12.164h-64.718-62.495-64.717c-6.708 0-12.165-5.457-12.165-12.164z"/><path d="m128 189.447c3.309 0 6-2.691 6-6s-2.691-6-6-6-6 2.691-6 6 2.691 6 6 6zm0-9c1.654 0 3 1.346 3 3s-1.346 3-3 3-3-1.346-3-3 1.346-3 3-3z"/><path d="m27.7 238.165h-18.172c-.829 0-1.5.672-1.5 1.5s.671 1.5 1.5 1.5h18.172c.829 0 1.5-.672 1.5-1.5s-.671-1.5-1.5-1.5z"/><path d="m246.472 238.165h-18.172c-.828 0-1.5.672-1.5 1.5s.672 1.5 1.5 1.5h18.172c.828 0 1.5-.672 1.5-1.5s-.672-1.5-1.5-1.5z"/><path d="m213.788 238.165h-171.577c-.829 0-1.5.672-1.5 1.5s.671 1.5 1.5 1.5h171.577c.828 0 1.5-.672 1.5-1.5s-.672-1.5-1.5-1.5z"/><path d="m9.528 229.619h7.803c.829 0 1.5-.672 1.5-1.5s-.671-1.5-1.5-1.5h-7.803c-.829 0-1.5.672-1.5 1.5s.671 1.5 1.5 1.5z"/><path d="m237.169 228.119c0 .828.672 1.5 1.5 1.5h7.803c.828 0 1.5-.672 1.5-1.5s-.672-1.5-1.5-1.5h-7.803c-.828 0-1.5.672-1.5 1.5z"/><path d="m128.333 68.659h-69.333c-.829 0-1.5.672-1.5 1.5v8.497c0 .828.671 1.5 1.5 1.5h69.333c.829 0 1.5-.672 1.5-1.5v-8.497c0-.828-.671-1.5-1.5-1.5zm-1.5 8.497h-66.333v-5.497h66.333z"/><path d="m204.638 88.996h-153.276c-.829 0-1.5.672-1.5 1.5v19.323c0 .828.671 1.5 1.5 1.5h153.275c.828 0 1.5-.672 1.5-1.5v-19.323c.001-.828-.671-1.5-1.499-1.5zm-1.5 19.323h-150.276v-16.323h150.275v16.323z"/><path d="m59 105.906h69.333c.829 0 1.5-.672 1.5-1.5v-8.497c0-.828-.671-1.5-1.5-1.5h-69.333c-.829 0-1.5.672-1.5 1.5v8.497c0 .828.671 1.5 1.5 1.5zm1.5-8.497h66.333v5.497h-66.333z"/><path d="m137.833 101.657h59.167c.828 0 1.5-.672 1.5-1.5s-.672-1.5-1.5-1.5h-59.167c-.828 0-1.5.672-1.5 1.5s.672 1.5 1.5 1.5z"/><path d="m204.638 114.746h-153.276c-.829 0-1.5.672-1.5 1.5v19.323c0 .828.671 1.5 1.5 1.5h153.275c.828 0 1.5-.672 1.5-1.5v-19.323c.001-.828-.671-1.5-1.499-1.5zm-1.5 19.323h-150.276v-16.323h150.275v16.323z"/><path d="m59 131.656h69.333c.829 0 1.5-.672 1.5-1.5v-8.497c0-.828-.671-1.5-1.5-1.5h-69.333c-.829 0-1.5.672-1.5 1.5v8.497c0 .828.671 1.5 1.5 1.5zm1.5-8.497h66.333v5.497h-66.333z"/><path d="m137.833 127.407h59.167c.828 0 1.5-.672 1.5-1.5s-.672-1.5-1.5-1.5h-59.167c-.828 0-1.5.672-1.5 1.5s.672 1.5 1.5 1.5z"/><path d="m204.638 140.496h-153.276c-.829 0-1.5.672-1.5 1.5v19.323c0 .828.671 1.5 1.5 1.5h153.275c.828 0 1.5-.672 1.5-1.5v-19.323c.001-.828-.671-1.5-1.499-1.5zm-1.5 19.323h-150.276v-16.323h150.275v16.323z"/><path d="m59 157.406h69.333c.829 0 1.5-.672 1.5-1.5v-8.497c0-.828-.671-1.5-1.5-1.5h-69.333c-.829 0-1.5.672-1.5 1.5v8.497c0 .828.671 1.5 1.5 1.5zm1.5-8.497h66.333v5.497h-66.333z"/><path d="m137.833 153.157h59.167c.828 0 1.5-.672 1.5-1.5s-.672-1.5-1.5-1.5h-59.167c-.828 0-1.5.672-1.5 1.5s.672 1.5 1.5 1.5z"/><path d="m151.533 53.808c.209 2.003 1.188 3.806 2.758 5.075l14.904 12.033c.277.224.61.333.941.333.418 0 .833-.174 1.129-.512l25.489-29.094c1.327-1.515 1.983-3.454 1.848-5.462-.136-2.01-1.048-3.846-2.569-5.17-3.138-2.732-7.915-2.407-10.651.718l-16.867 19.254-4.719-3.812c-3.237-2.612-8-2.115-10.617 1.113-1.27 1.562-1.854 3.524-1.646 5.524zm3.975-3.631c.897-1.106 2.213-1.681 3.541-1.681 1.007 0 2.021.33 2.862 1.01l5.84 4.717c.628.506 1.54.427 2.07-.179l17.816-20.338h.001c1.651-1.887 4.532-2.079 6.424-.432.916.797 1.466 1.901 1.547 3.109.082 1.206-.312 2.372-1.11 3.283l-24.54 28.01-13.782-11.126c-.944-.764-1.534-1.849-1.659-3.054-.126-1.201.225-2.38.99-3.319z"/></g></g></g></g></svg>