<svg id="Gradient" height="512" viewBox="0 0 512 512" width="512" xmlns="http://www.w3.org/2000/svg" xmlns:xlink="http://www.w3.org/1999/xlink"><linearGradient id="linear-gradient" gradientUnits="userSpaceOnUse" x1="256" x2="256" y1="488" y2="24"><stop offset="0" stop-color="#12c2e9"/><stop offset=".5" stop-color="#c471ed"/><stop offset="1" stop-color="#f64f59"/></linearGradient><path d="m472 24h-432a24.028 24.028 0 0 0 -24 24v416a24.028 24.028 0 0 0 24 24h432a24.028 24.028 0 0 0 24-24v-416a24.028 24.028 0 0 0 -24-24zm-432 16h432a8.009 8.009 0 0 1 8 8v40h-448v-40a8.009 8.009 0 0 1 8-8zm432 432h-432a8.009 8.009 0 0 1 -8-8v-360h448v360a8.009 8.009 0 0 1 -8 8zm-360-408a8 8 0 1 1 8 8 8 8 0 0 1 -8-8zm-32 0a8 8 0 1 1 8 8 8 8 0 0 1 -8-8zm-32 0a8 8 0 1 1 8 8 8 8 0 0 1 -8-8zm88 296h-64a8 8 0 0 0 -8 8v64a8 8 0 0 0 8 8h64a8 8 0 0 0 8-8v-64a8 8 0 0 0 -8-8zm-8 16v36.686l-18.343-18.343a8 8 0 0 0 -11.314 0l-18.343 18.343v-36.686zm-11.314 48h-25.372l12.686-12.687zm19.314-176h-64a8 8 0 0 0 -8 8v64a8 8 0 0 0 8 8h64a8 8 0 0 0 8-8v-64a8 8 0 0 0 -8-8zm-8 16v36.686l-18.343-18.343a8 8 0 0 0 -11.314 0l-18.343 18.343v-36.686zm-11.314 48h-25.372l12.686-12.687zm123.314 8a8 8 0 0 1 -8 8h-64a8 8 0 0 1 0-16h64a8 8 0 0 1 8 8zm0 48a8 8 0 0 1 -8 8h-32a8 8 0 0 1 0-16h32a8 8 0 0 1 8 8zm-80 32a8 8 0 0 1 8-8h16a8 8 0 0 1 0 16h-16a8 8 0 0 1 -8-8zm80 0a8 8 0 0 1 -8 8h-16a8 8 0 0 1 0-16h16a8 8 0 0 1 8 8zm0 32a8 8 0 0 1 -8 8h-64a8 8 0 0 1 0-16h64a8 8 0 0 1 8 8zm-72-56a8 8 0 1 1 8-8 8 8 0 0 1 -8 8zm72-120a8 8 0 0 1 -8 8h-32a8 8 0 0 1 0-16h32a8 8 0 0 1 8 8zm-80 32a8 8 0 0 1 8-8h16a8 8 0 0 1 0 16h-16a8 8 0 0 1 -8-8zm80 0a8 8 0 0 1 -8 8h-16a8 8 0 0 1 0-16h16a8 8 0 0 1 8 8zm-72-24a8 8 0 1 1 8-8 8 8 0 0 1 -8 8zm176 96h-64a8 8 0 0 0 -8 8v64a8 8 0 0 0 8 8h64a8 8 0 0 0 8-8v-64a8 8 0 0 0 -8-8zm-8 16v36.686l-18.343-18.343a8 8 0 0 0 -11.314 0l-18.343 18.343v-36.686zm-11.314 48h-25.372l12.686-12.687zm19.314-176h-64a8 8 0 0 0 -8 8v64a8 8 0 0 0 8 8h64a8 8 0 0 0 8-8v-64a8 8 0 0 0 -8-8zm-8 16v36.686l-18.343-18.343a8 8 0 0 0 -11.314 0l-18.343 18.343v-36.686zm-11.314 48h-25.372l12.686-12.687zm123.314 8a8 8 0 0 1 -8 8h-64a8 8 0 0 1 0-16h64a8 8 0 0 1 8 8zm0 48a8 8 0 0 1 -8 8h-32a8 8 0 0 1 0-16h32a8 8 0 0 1 8 8zm-80 32a8 8 0 0 1 8-8h16a8 8 0 0 1 0 16h-16a8 8 0 0 1 -8-8zm80-112a8 8 0 0 1 -8 8h-16a8 8 0 0 1 0-16h16a8 8 0 0 1 8 8zm0 144a8 8 0 0 1 -8 8h-64a8 8 0 0 1 0-16h64a8 8 0 0 1 8 8zm-72-56a8 8 0 1 1 8-8 8 8 0 0 1 -8 8zm72-120a8 8 0 0 1 -8 8h-32a8 8 0 0 1 0-16h32a8 8 0 0 1 8 8zm-80 32a8 8 0 0 1 8-8h16a8 8 0 0 1 0 16h-16a8 8 0 0 1 -8-8zm48 120a8 8 0 0 1 0-16h16a8 8 0 0 1 0 16zm-40-144a8 8 0 1 1 8-8 8 8 0 0 1 -8 8zm-240-128h-64a8 8 0 0 0 -8 8v64a8 8 0 0 0 8 8h64a8 8 0 0 0 8-8v-64a8 8 0 0 0 -8-8zm-8 16v36.686l-18.343-18.343a8 8 0 0 0 -11.314 0l-18.343 18.343v-36.686zm-11.314 48h-25.372l12.686-12.687zm123.314 8a8 8 0 0 1 -8 8h-64a8 8 0 0 1 0-16h64a8 8 0 0 1 8 8zm0-64a8 8 0 0 1 -8 8h-32a8 8 0 0 1 0-16h32a8 8 0 0 1 8 8zm-80 32a8 8 0 0 1 8-8h16a8 8 0 0 1 0 16h-16a8 8 0 0 1 -8-8zm80 0a8 8 0 0 1 -8 8h-16a8 8 0 0 1 0-16h16a8 8 0 0 1 8 8zm-80-32a8 8 0 1 1 8 8 8 8 0 0 1 -8-8zm184-8h-64a8 8 0 0 0 -8 8v64a8 8 0 0 0 8 8h64a8 8 0 0 0 8-8v-64a8 8 0 0 0 -8-8zm-8 16v36.686l-18.343-18.343a8 8 0 0 0 -11.314 0l-18.343 18.343v-36.686zm-11.314 48h-25.372l12.686-12.687zm123.314 8a8 8 0 0 1 -8 8h-64a8 8 0 0 1 0-16h64a8 8 0 0 1 8 8zm0-32a8 8 0 0 1 -8 8h-16a8 8 0 0 1 0-16h16a8 8 0 0 1 8 8zm0-32a8 8 0 0 1 -8 8h-32a8 8 0 0 1 0-16h32a8 8 0 0 1 8 8zm-80 32a8 8 0 0 1 8-8h16a8 8 0 0 1 0 16h-16a8 8 0 0 1 -8-8zm0-32a8 8 0 1 1 8 8 8 8 0 0 1 -8-8z" fill="url(#linear-gradient)"/></svg>