<svg height="512" viewBox="0 0 512 512" width="512" xmlns="http://www.w3.org/2000/svg"><g id="Flat"><rect fill="#8acce7" height="232" rx="32" width="336" x="24" y="208"/><path d="m24 408h336a0 0 0 0 1 0 0 32 32 0 0 1 -32 32h-272a32 32 0 0 1 -32-32 0 0 0 0 1 0 0z" fill="#379ec3"/><path d="m56 232h272a8 8 0 0 1 8 8v168a0 0 0 0 1 0 0h-288a0 0 0 0 1 0 0v-168a8 8 0 0 1 8-8z" fill="#a2c32a"/><path d="m168 440v16a32 32 0 0 1 -32 32h112a32 32 0 0 1 -32-32v-16z" fill="#8acce7"/><rect fill="#eedc9a" height="208" rx="16" width="240" x="72" y="168"/><path d="m312 184v128h-136a32.036 32.036 0 0 1 -32-32v-112h152a15.99568 15.99568 0 0 1 16 16z" fill="#eebe33"/><path d="m96 208h192v16h-192z" fill="#eebe33"/><circle cx="104" cy="192" fill="#e44042" r="8"/><circle cx="128" cy="192" fill="#eebe33" r="8"/><circle cx="152" cy="192" fill="#349966" r="8"/><rect fill="#eedc9a" height="208" rx="16" width="240" x="160" y="88"/><path d="m400 104v144h-136a32.036 32.036 0 0 1 -32-32v-128h152a15.99568 15.99568 0 0 1 16 16z" fill="#eebe33"/><path d="m184 128h192v16h-192z" fill="#eebe33"/><circle cx="192" cy="112" fill="#e44042" r="8"/><circle cx="216" cy="112" fill="#eebe33" r="8"/><circle cx="240" cy="112" fill="#349966" r="8"/><rect fill="#eedc9a" height="208" rx="16" width="240" x="248" y="24"/><path d="m272 64h192v16h-192z" fill="#eebe33"/><circle cx="280" cy="48" fill="#e44042" r="8"/><circle cx="304" cy="48" fill="#eebe33" r="8"/><circle cx="328" cy="48" fill="#349966" r="8"/><path d="m280 104h72v72h-72z" fill="#8acce7"/><path d="m384 104h72v72h-72z" fill="#349966"/><g fill="#eebe33"><path d="m288 192h32v16h-32z"/><path d="m328 192h16v16h-16z"/><path d="m392 192h32v16h-32z"/><path d="m432 192h16v16h-16z"/></g></g></svg>