<svg height="512pt" viewBox="0 0 512 512" width="512pt" xmlns="http://www.w3.org/2000/svg"><path d="m220.691406 397.242188h-185.382812c-19.5 0-35.308594-15.808594-35.308594-35.3125v-326.621094c0-19.5 15.808594-35.308594 35.308594-35.308594h397.242187c19.503907 0 35.3125 15.808594 35.3125 35.308594v195.710937zm0 0" fill="#b0d3f0"/><path d="m123.585938 88.277344v52.964844h-79.449219v-44.933594c.242187-4.644532 4.179687-8.226563 8.828125-8.03125zm0 0" fill="#ff5364"/><path d="m423.722656 96.308594v44.933594h-300.136718v-52.964844h291.3125c4.644531-.195313 8.582031 3.386718 8.824218 8.03125zm0 0" fill="#e6e7e8"/><path d="m123.585938 141.242188h300.136718v52.964843h-300.136718zm0 0" fill="#fff"/><path d="m123.585938 194.207031h300.136718v52.964844h-300.136718zm0 0" fill="#e6e7e8"/><path d="m123.585938 247.171875h300.136718v52.964844h-300.136718zm0 0" fill="#fff"/><path d="m123.585938 300.136719h300.136718v52.964843h-300.136718zm0 0" fill="#e6e7e8"/><path d="m123.585938 300.136719v52.964843h-70.621094c-4.648438.195313-8.585938-3.386718-8.828125-8.03125v-44.933593zm0 0" fill="#ff5364"/><path d="m44.136719 141.242188h79.449219v52.964843h-79.449219zm0 0" fill="#fb7b76"/><path d="m44.136719 194.207031h79.449219v52.964844h-79.449219zm0 0" fill="#ff5364"/><path d="m44.136719 247.171875h79.449219v52.964844h-79.449219zm0 0" fill="#fb7b76"/><path d="m70.621094 52.964844h-17.65625c-4.875 0-8.828125-3.953125-8.828125-8.828125s3.953125-8.828125 8.828125-8.828125h17.65625c4.875 0 8.828125 3.953125 8.828125 8.828125s-3.953125 8.828125-8.828125 8.828125zm0 0" fill="#c03a2b"/><path d="m123.585938 52.964844h-17.65625c-4.875 0-8.828126-3.953125-8.828126-8.828125s3.953126-8.828125 8.828126-8.828125h17.65625c4.875 0 8.828124 3.953125 8.828124 8.828125s-3.953124 8.828125-8.828124 8.828125zm0 0" fill="#f0c419"/><path d="m194.207031 52.964844h-35.308593c-4.878907 0-8.828126-3.953125-8.828126-8.828125s3.949219-8.828125 8.828126-8.828125h35.308593c4.875 0 8.828125 3.953125 8.828125 8.828125s-3.953125 8.828125-8.828125 8.828125zm0 0" fill="#24ae5f"/><path d="m423.722656 52.964844h-194.207031c-4.875 0-8.824219-3.953125-8.824219-8.828125s3.949219-8.828125 8.824219-8.828125h194.207031c4.875 0 8.828125 3.953125 8.828125 8.828125s-3.953125 8.828125-8.828125 8.828125zm0 0" fill="#2c2f38"/><path d="m229.515625 211.863281h264.828125c9.75 0 17.65625 7.902344 17.65625 17.652344v264.828125c0 9.75-7.90625 17.65625-17.65625 17.65625h-264.828125c-9.75 0-17.652344-7.90625-17.652344-17.65625v-264.828125c0-9.75 7.902344-17.652344 17.652344-17.652344zm0 0" fill="#24ae5f"/><g fill="#71c285"><path d="m273.65625 485.515625c-19.503906 0-35.3125-15.808594-35.3125-35.308594 0-4.875 3.953125-8.828125 8.828125-8.828125s8.828125 3.953125 8.828125 8.828125c0 9.75 7.90625 17.65625 17.65625 17.65625s17.652344-7.90625 17.652344-17.65625l17.699218-177.433593c.871094-19.027344 16.671876-33.9375 35.71875-33.699219 19.042969.238281 34.46875 15.539062 34.859376 34.582031 0 4.875-3.953126 8.828125-8.828126 8.828125s-8.828124-3.953125-8.828124-8.828125c0-9.75-7.902344-17.65625-17.652344-17.65625-9.753906 0-17.65625 7.90625-17.65625 17.65625l-17.699219 177.433594c-.371094 19.183594-16.078125 34.519531-35.265625 34.425781zm0 0"/><path d="m353.101562 361.929688h-79.445312c-4.875 0-8.828125-3.949219-8.828125-8.828126 0-4.875 3.953125-8.824218 8.828125-8.824218h79.445312c4.878907 0 8.828126 3.949218 8.828126 8.824218 0 4.878907-3.949219 8.828126-8.828126 8.828126zm0 0"/><path d="m450.207031 476.691406c-2.339843-.003906-4.585937-.933594-6.242187-2.589844l-79.449219-79.445312c-3.34375-3.464844-3.296875-8.972656.109375-12.375 3.40625-3.40625 8.910156-3.453125 12.375-.109375l79.449219 79.449219c2.523437 2.523437 3.277343 6.320312 1.910156 9.617187-1.363281 3.300781-4.582031 5.449219-8.152344 5.453125zm0 0"/><path d="m370.757812 476.691406c-3.570312-.003906-6.785156-2.152344-8.152343-5.453125-1.367188-3.296875-.613281-7.09375 1.910156-9.617187l79.449219-79.449219c3.464844-3.34375 8.96875-3.296875 12.375.109375 3.40625 3.402344 3.453125 8.910156.109375 12.375l-79.449219 79.445312c-1.65625 1.65625-3.898438 2.585938-6.242188 2.589844zm0 0"/></g></svg>