<?xml version="1.0" encoding="iso-8859-1"?>
<!-- Generator: Adobe Illustrator 19.0.0, SVG Export Plug-In . SVG Version: 6.00 Build 0)  -->
<svg version="1.1" id="Capa_1" xmlns="http://www.w3.org/2000/svg" xmlns:xlink="http://www.w3.org/1999/xlink" x="0px" y="0px"
	 viewBox="0 0 491.52 491.52" style="enable-background:new 0 0 491.52 491.52;" xml:space="preserve">
<circle style="fill:#45B39C;" cx="245.76" cy="245.76" r="245.76"/>
<g>
	<path style="fill:#FFFFFF;" d="M252.738,326.445c-0.138-0.875-0.206-1.762-0.31-2.643H240.89v-6.842h11.063
		c-0.007-0.387-0.045-0.772-0.045-1.16c0-3.09,0.25-6.167,0.663-9.215h-51.802v-6.842h46.12c-3.879-4.536-4.607-11.14-1.562-16.42
		l6.453-11.175h-31.545v-6.842h35.874c2.686-3.187,6.61-5.168,10.854-5.168c1.535,0,3.055,0.245,4.515,0.732l5.745,1.915
		c4.91-3.972,10.379-7.202,16.174-9.677v-5.021h3.074l0.382-1.863c1.35-6.618,7.235-11.425,13.995-11.425h18.52
		c4.662,0,8.867,2.318,11.499,5.909v-96.48H104.96v190.905c0,3.166,2.566,5.733,5.732,5.733h132.766
		c0.081-3.889,1.708-7.708,4.764-10.419L252.738,326.445z M223.609,282.522v6.842h-22.84v-6.842H223.609z M236.45,237.708h-59.782
		v-6.842h59.782V237.708z M263.73,254.929h-22.84v-6.842h22.84V254.929z M247.716,220.491v-6.842h22.84v6.842H247.716z
		 M293.396,237.708h-22.84v-6.842h22.84V237.708z M264.35,158.129h6.96v41.23h-6.96V158.129z M224.008,158.129h14.156
		c6.255,0,10.815,1.2,13.686,3.595c2.87,2.401,4.305,6.097,4.305,11.089c0,4.997-1.464,8.655-4.398,10.974
		c-2.928,2.318-7.42,3.48-13.474,3.48h-7.316v12.092h-6.96V158.129z M223.609,220.491h-22.84v-6.842h22.84V220.491z
		 M192.685,158.129h7.431l18.169,41.23h-7.435l-4.127-9.38h-20.647l-4.128,9.38h-7.431L192.685,158.129z M153.827,213.649h22.84
		v6.842h-22.84V213.649z M153.827,248.087h66.407v6.842h-66.407V248.087z M198.45,265.305v6.842h-22.839v-6.842H198.45z
		 M153.827,282.522h22.84v6.842h-22.84V282.522z M153.827,299.742h22.84v6.842h-22.84V299.742z M141.145,323.802h-22.84v-6.842
		h22.84V323.802z M141.145,306.584h-22.84v-6.842h22.84V306.584z M141.145,289.363h-22.84v-6.842h22.84V289.363z M141.145,272.146
		h-22.84v-6.842h22.84V272.146z M141.145,254.929h-22.84v-6.842h22.84V254.929z M141.145,237.708h-22.84v-6.842h22.84V237.708z
		 M141.145,220.491h-22.84v-6.842h22.84V220.491z M220.235,323.802h-66.407v-6.842h66.407V323.802z"/>
	<polygon style="fill:#FFFFFF;" points="196.401,166.563 188.908,183.552 203.89,183.552 	"/>
	<path style="fill:#FFFFFF;" d="M246.925,178.742c1.396-1.474,2.093-3.634,2.093-6.486c0-2.851-0.884-4.867-2.655-6.048
		c-1.771-1.181-4.541-1.767-8.319-1.767h-7.076v16.513h8.08C242.901,180.955,245.528,180.22,246.925,178.742z"/>
</g>
<path style="fill:#64798A;" d="M340.866,110.692c0-3.166-2.566-5.732-5.733-5.732h-224.44c-3.166,0-5.732,2.567-5.732,5.732v33.535
	h235.906V110.692z M119.341,131.069c-3.576,0-6.475-2.899-6.475-6.475c0-3.576,2.898-6.475,6.475-6.475
	c3.576,0,6.475,2.899,6.475,6.475C125.816,128.17,122.917,131.069,119.341,131.069z M142.425,131.069
	c-3.575,0-6.475-2.899-6.475-6.475c0-3.576,2.9-6.475,6.475-6.475c3.576,0,6.475,2.899,6.475,6.475
	C148.9,128.17,146.001,131.069,142.425,131.069z M165.51,131.069c-3.576,0-6.475-2.899-6.475-6.475c0-3.576,2.899-6.475,6.475-6.475
	c3.575,0,6.475,2.899,6.475,6.475C171.985,128.17,169.085,131.069,165.51,131.069z M331.817,131.069H184.023v-12.95h147.795V131.069
	z"/>
<rect x="184.023" y="118.118" style="fill:#EBF0F3;" width="147.794" height="12.948"/>
<circle style="fill:#FCD462;" cx="165.53" cy="124.595" r="6.477"/>
<circle style="fill:#44C4A1;" cx="142.423" cy="124.595" r="6.477"/>
<circle style="fill:#E56353;" cx="119.342" cy="124.595" r="6.477"/>
<g>
	<rect x="118.323" y="213.647" style="fill:#64798A;" width="22.84" height="6.84"/>
	<rect x="118.323" y="230.861" style="fill:#64798A;" width="22.84" height="6.84"/>
	<rect x="270.556" y="230.861" style="fill:#64798A;" width="22.84" height="6.84"/>
	<rect x="118.323" y="248.064" style="fill:#64798A;" width="22.84" height="6.84"/>
</g>
<rect x="240.896" y="248.064" style="fill:#E56353;" width="22.84" height="6.84"/>
<path style="fill:#27A2DB;" d="M293.396,253.108c0.749-0.319,1.481-0.673,2.241-0.966l0.833-4.055h-3.074V253.108z"/>
<g>
	<rect x="118.323" y="265.303" style="fill:#64798A;" width="22.84" height="6.84"/>
	<rect x="118.323" y="282.522" style="fill:#64798A;" width="22.84" height="6.84"/>
	<rect x="118.323" y="299.725" style="fill:#64798A;" width="22.84" height="6.84"/>
	<rect x="118.323" y="316.959" style="fill:#64798A;" width="22.84" height="6.84"/>
</g>
<g>
	<path style="fill:#E56353;" d="M240.89,323.802h11.537c-0.266-2.268-0.436-4.549-0.475-6.842H240.89V323.802z"/>
	<rect x="153.805" y="213.647" style="fill:#E56353;" width="22.84" height="6.84"/>
</g>
<rect x="200.755" y="213.647" style="fill:#64798A;" width="22.84" height="6.84"/>
<g>
	<rect x="247.706" y="213.647" style="fill:#44C4A1;" width="22.84" height="6.84"/>
	<rect x="176.666" y="230.861" style="fill:#44C4A1;" width="59.781" height="6.84"/>
</g>
<rect x="153.805" y="248.064" style="fill:#64798A;" width="66.406" height="6.84"/>
<rect x="175.616" y="265.303" style="fill:#44C4A1;" width="22.84" height="6.84"/>
<path style="fill:#DC8744;" d="M220.235,272.146h31.545l2.807-4.865c0.422-0.732,0.986-1.342,1.521-1.977h-35.874V272.146z"/>
<rect x="153.805" y="282.522" style="fill:#E56353;" width="22.84" height="6.84"/>
<g>
	<rect x="200.755" y="282.522" style="fill:#64798A;" width="22.84" height="6.84"/>
	<rect x="153.805" y="299.725" style="fill:#64798A;" width="22.84" height="6.84"/>
</g>
<path style="fill:#27A2DB;" d="M200.769,306.584h51.802c0.065-0.475,0.094-0.956,0.167-1.43l-4.515-4
	c-0.492-0.436-0.915-0.923-1.334-1.412h-46.12V306.584z"/>
<rect x="153.805" y="316.959" style="fill:#DC8744;" width="66.406" height="6.84"/>
<g>
	<path style="fill:#E56353;" d="M186.075,189.979h20.647l4.127,9.38h7.435l-18.169-41.23h-7.431l-18.169,41.23h7.431
		L186.075,189.979z M196.401,166.563l7.489,16.989h-14.983L196.401,166.563z"/>
	<path style="fill:#E56353;" d="M230.967,187.267h7.316c6.054,0,10.546-1.162,13.474-3.48c2.934-2.319,4.398-5.977,4.398-10.974
		c0-4.992-1.435-8.688-4.305-11.089c-2.871-2.395-7.432-3.595-13.686-3.595h-14.156v41.23h6.96V187.267z M230.967,164.442h7.076
		c3.778,0,6.547,0.586,8.319,1.767c1.771,1.181,2.655,3.197,2.655,6.048c0,2.852-0.696,5.012-2.093,6.486
		c-1.397,1.479-4.024,2.213-7.877,2.213h-8.08V164.442z"/>
	<rect x="264.351" y="158.131" style="fill:#E56353;" width="6.958" height="41.216"/>
</g>
<path style="fill:#EBF0F3;" d="M340.866,335.133v-94.425c-2.631-3.591-6.836-5.909-11.499-5.909h-18.52
	c-6.76,0-12.645,4.808-13.995,11.425l-0.382,1.863h19.765v6.842h-22.838v-1.821c-5.795,2.474-11.264,5.705-16.174,9.677
	l-5.745-1.915c-1.46-0.487-2.98-0.732-4.515-0.732c-4.243,0-8.167,1.98-10.854,5.168h32.89v6.842H251.78l-6.453,11.175
	c-3.046,5.281-2.317,11.884,1.562,16.42h29.783v6.842H252.57c-0.413,3.048-0.663,6.125-0.663,9.215c0,0.388,0.038,0.773,0.045,1.16
	h11.778v6.842h-11.303c0.104,0.881,0.173,1.767,0.31,2.643l-4.515,4.002c-3.057,2.711-4.683,6.53-4.764,10.419h91.674
	C338.3,340.866,340.866,338.299,340.866,335.133z M247.716,289.363v-6.842h68.518v6.842H247.716z M319.97,323.802h-22.84v-6.842
	h22.84V323.802z M327.655,306.584h-22.84v-6.842h22.84V306.584z"/>
<path style="fill:#3EA69B;" d="M293.396,253.108v1.821h22.838v-6.842H296.47l-0.833,4.055
	C294.878,252.434,294.145,252.788,293.396,253.108z"/>
<path style="fill:#D15241;" d="M263.73,323.802v-6.842h-11.778c0.038,2.293,0.208,4.574,0.475,6.842H263.73z"/>
<rect x="297.114" y="316.959" style="fill:#CE412D;" width="22.84" height="6.84"/>
<path style="fill:#C9773F;" d="M251.78,272.146h37.219v-6.842h-32.89c-0.535,0.635-1.099,1.245-1.521,1.977L251.78,272.146z"/>
<rect x="247.706" y="282.522" style="fill:#3EA69B;" width="68.516" height="6.84"/>
<rect x="304.794" y="299.725" style="fill:#CE412D;" width="22.84" height="6.84"/>
<path style="fill:#2D93BA;" d="M252.738,305.154c-0.074,0.474-0.102,0.955-0.167,1.43h24.101v-6.842h-29.783
	c0.418,0.489,0.842,0.976,1.334,1.412L252.738,305.154z"/>
<path style="fill:#E56353;" d="M376.267,330.189c1.175-4.601,1.802-9.422,1.802-14.39c0-4.967-0.628-9.788-1.802-14.39l8.93-7.919
	c1.439-1.276,1.782-3.388,0.82-5.054l-9.258-16.035c-0.962-1.666-2.962-2.425-4.787-1.817l-11.347,3.783
	c-6.863-6.713-15.385-11.727-24.895-14.383l-2.396-11.708c-0.387-1.884-2.044-3.237-3.966-3.237H310.85
	c-1.924,0-3.581,1.353-3.967,3.237l-2.395,11.708c-9.51,2.656-18.032,7.67-24.896,14.383l-11.347-3.783
	c-1.824-0.608-3.825,0.151-4.786,1.817l-9.26,16.036c-0.962,1.666-0.617,3.778,0.821,5.054l8.93,7.919
	c-1.175,4.601-1.802,9.422-1.802,14.39c0,4.968,0.627,9.788,1.802,14.39l-8.93,7.919c-1.439,1.276-1.783,3.388-0.821,5.054
	l9.26,16.036c0.961,1.666,2.962,2.425,4.786,1.817l11.347-3.784c6.864,6.713,15.386,11.727,24.896,14.383l2.395,11.709
	c0.386,1.884,2.044,3.237,3.967,3.237h18.518c1.923,0,3.58-1.353,3.966-3.237l2.396-11.709c9.51-2.656,18.031-7.67,24.895-14.383
	l11.347,3.783c1.825,0.608,3.825-0.151,4.787-1.817l9.258-16.036c0.962-1.666,0.619-3.778-0.82-5.054L376.267,330.189z
	 M320.109,359.436c-24.061,0-43.637-19.574-43.637-43.637c0-24.062,19.575-43.636,43.637-43.636
	c24.061,0,43.636,19.574,43.636,43.636C363.745,339.862,344.169,359.436,320.109,359.436z"/>
<path style="fill:#D15241;" d="M320.109,272.163c-24.061,0-43.637,19.574-43.637,43.636c0,24.062,19.575,43.637,43.637,43.637
	c24.061,0,43.636-19.574,43.636-43.637C363.745,291.737,344.169,272.163,320.109,272.163z M320.109,351.687
	c-19.789,0-35.888-16.099-35.888-35.888c0-19.788,16.099-35.888,35.888-35.888c19.788,0,35.887,16.099,35.887,35.888
	C355.996,335.588,339.897,351.687,320.109,351.687z"/>
<circle style="fill:#CE412D;" cx="320.102" cy="315.802" r="20.756"/>
<g>
</g>
<g>
</g>
<g>
</g>
<g>
</g>
<g>
</g>
<g>
</g>
<g>
</g>
<g>
</g>
<g>
</g>
<g>
</g>
<g>
</g>
<g>
</g>
<g>
</g>
<g>
</g>
<g>
</g>
</svg>
