<svg id="Layer_1" enable-background="new 0 0 512 512" height="512" viewBox="0 0 512 512" width="512" xmlns="http://www.w3.org/2000/svg"><g><path d="m244.999 22.002c-135.309 0-244.999 109.69-244.999 244.999 0 7.81.382 15.53 1.097 23.154l224.362 221.069c6.447.509 12.962.776 19.54.776 135.309 0 244.999-109.689 244.999-244.999s-109.69-244.999-244.999-244.999z" fill="#3b3868"/><path d="m151.219 384.164c-5.232 3.021-11.907 2.18-16.233-2.045l-.936-.915-20.571 11.877 40.848 42.79c.9-.434 1.794-.892 2.674-1.4 19.271-11.126 25.874-35.768 14.748-55.04-1.049-1.816-2.217-3.518-3.489-5.105z" fill="#d3dcfb"/><path d="m154.327 435.871c.9-.434 1.794-.892 2.674-1.4 7.218-4.167 12.658-10.231 16.056-17.198-22.424-4.092-25.282-21.998-25.109-31.765-4.529 1.201-9.497-.005-12.961-3.388l-.936-.915-20.571 11.877z" fill="#bec8f7"/><path d="m56.982 424.068c41.252 49.327 101.543 82.181 169.581 87.244-.844-2.335-2.165-4.538-3.989-6.449l-107.965-113.1-47.563 27.461c-3.279 1.893-6.644 3.503-10.064 4.844z" fill="#e9efff"/><path d="m155.937 435.057-41.328-43.294-47.563 27.461c-3.279 1.893-6.644 3.503-10.065 4.844 17.04 20.376 37.336 37.93 60.077 51.886-4.035-42.896 38.879-40.897 38.879-40.897z" fill="#d3dcfb"/><g><path d="m46.92 264.359-14.137-24.485c-4.292-7.434-13.796-9.98-21.23-5.689-7.433 4.292-9.98 13.796-5.688 21.23l14.137 24.485z" fill="#e9efff"/></g><path d="m34.243 242.401c.06.581.09 1.171.09 1.768 0 9.481-7.686 17.167-17.166 17.167-3.541 0-6.83-1.073-9.563-2.91l12.398 21.474 26.918-15.541z" fill="#d3dcfb"/><g><path d="m213.339 343.203c47.065-18.767 97.542-21.472 144.502-10.007l-142.619-247.023c-13.551 46.402-41.132 88.763-80.917 120.139 2.93 1.254 5.5 3.415 7.216 6.387l69.895 121.062c1.715 2.972 2.302 6.278 1.923 9.442z" fill="#d3dcfb"/></g><g><path d="m265.104 172.571-49.882-86.398c-13.551 46.402-41.132 88.763-80.917 120.139 2.93 1.254 5.5 3.415 7.216 6.387l34.038 58.956c39.842-28.824 70.547-63.542 89.545-99.084z" fill="#bec8f7"/></g><path d="m134.125 378.385-69.895-121.062c-.717-1.241-1.224-2.544-1.562-3.868l-61.669 35.605c4.641 51.992 25.515 99.304 57.529 136.838 3.284-1.31 6.517-2.86 9.669-4.679l68.497-39.546c-.978-.957-1.852-2.047-2.569-3.288z" fill="#ff7186"/><path d="m95.819 318.766-1.56-9.431-30.029-52.012c-.717-1.241-1.224-2.544-1.562-3.868l-61.669 35.605c2.235 25.044 8.247 48.996 17.446 71.299 2.329-19.735 16.101-25.013 16.101-25.013s3-1.333 26.667-14.822 34.606-1.758 34.606-1.758z" fill="#ff4155"/><path d="m207.817 353.481-55.735 32.178c-7.308 4.219-16.652 1.715-20.871-5.592l-69.895-121.062c-4.219-7.308-1.715-16.652 5.592-20.871l55.735-32.179c7.308-4.219 16.652-1.715 20.871 5.592l69.895 121.062c4.219 7.309 1.716 16.653-5.592 20.872z" fill="#ff4155"/><path d="m143.514 211.548c-4.219-7.308-13.563-9.811-20.87-5.592l-55.735 32.179c-7.308 4.219-9.812 13.563-5.592 20.871l34.503 59.76c3.939-17.413 18.387-9.589 18.387-9.589l46.314-26.739c2.14-16.741 16.91-12.146 16.91-12.146z" fill="#e80054"/><g><path d="m92.38 263.618c-2.677 0-5.28-1.389-6.714-3.874-2.139-3.704-.869-8.441 2.835-10.579l32.9-18.995c3.704-2.139 8.441-.869 10.579 2.835 2.139 3.704.87 8.441-2.835 10.579l-32.9 18.995c-1.219.704-2.551 1.039-3.865 1.039z" fill="#ff7186"/></g><g><path d="m106.65 288.335c-2.677 0-5.28-1.389-6.714-3.874-2.139-3.704-.87-8.441 2.835-10.579l32.899-18.995c3.704-2.14 8.441-.869 10.579 2.835 2.139 3.704.869 8.441-2.835 10.579l-32.9 18.995c-1.218.704-2.55 1.039-3.864 1.039z" fill="#ff7186"/></g><g><path d="m120.92 313.051c-2.677 0-5.28-1.389-6.714-3.874-2.139-3.704-.869-8.441 2.835-10.579l32.9-18.995c3.704-2.14 8.441-.869 10.579 2.835s.869 8.441-2.835 10.579l-32.9 18.995c-1.219.704-2.551 1.039-3.865 1.039z" fill="#ff7186"/></g><g><path d="m135.19 337.767c-2.677 0-5.28-1.389-6.714-3.874-2.139-3.704-.87-8.441 2.835-10.579l32.899-18.995c3.704-2.14 8.441-.869 10.579 2.835 2.139 3.704.869 8.441-2.835 10.579l-32.9 18.995c-1.218.704-2.55 1.039-3.864 1.039z" fill="#ff7186"/></g><g><path d="m149.46 362.483c-2.677 0-5.28-1.389-6.714-3.874-2.139-3.704-.87-8.441 2.835-10.579l32.9-18.994c3.704-2.14 8.441-.869 10.579 2.835 2.139 3.704.87 8.441-2.835 10.579l-32.9 18.995c-1.219.704-2.551 1.038-3.865 1.038z" fill="#ff7186"/></g><path d="m447.806 122.026c-1.557 0-2.94-.746-3.793-2.049l-9.887-15.076c-1.168-1.781-3.137-2.844-5.267-2.844h-48.14c-8.04 0-14.581-6.542-14.581-14.582v-35.472h-34.533c-8.872 0-16.131 7.259-16.131 16.131v71.346c0 8.872 7.259 16.13 16.131 16.13h14.357c1.601 0 3.094.806 3.972 2.145l9.887 15.076c2.403 3.664 7.774 3.664 10.177 0l9.887-15.076c.878-1.339 2.371-2.145 3.971-2.145h48.139c8.872 0 16.131-7.259 16.131-16.131v-17.472c-.106.007-.212.019-.32.019z" fill="#ffb332"/><path d="m397.796 144.087v-29.358c0-5.703 3.953-10.515 9.25-11.867v-.804h-26.327c-8.041 0-14.582-6.542-14.582-14.582v-35.473h-34.533c-8.872 0-16.131 7.259-16.131 16.131v71.346c0 8.872 7.259 16.13 16.131 16.13h14.357c1.601 0 3.094.806 3.972 2.145l9.887 15.076c2.403 3.664 7.774 3.664 10.177 0l9.887-15.076c.878-1.339 2.371-2.145 3.971-2.145h22.067c-4.721-1.707-8.126-6.231-8.126-11.523z" fill="#ff9100"/><path d="m426.308 228.765c1.402-1.402 3.267-2.176 5.25-2.176 1.984 0 3.849.773 5.251 2.176l31.568 31.568 17.959-17.96c2.896-2.895 7.607-2.895 10.502 0l15.162 15.161v-64.569c0-5.019-4.068-9.087-9.087-9.087h-94.659c-5.019 0-9.087 4.068-9.087 9.087v62.94z" fill="#8ae1ff"/><g><path d="m432.213 220.666v-24.788c0-6.6 5.4-12 12-12h-35.959c-5.019 0-9.087 4.068-9.087 9.087v62.94l27.141-27.141c1.402-1.402 3.267-2.176 5.25-2.176.87 0 1.714.157 2.51.442-1.168-1.848-1.855-4.027-1.855-6.364z" fill="#42c3fc"/></g><path d="m506.171 296.1c-.353-.558-.767-1.089-1.253-1.575l-66.935-66.935c-3.549-3.549-9.302-3.549-12.851 0l-25.966 25.966v34.068c0 5.019 4.068 9.087 9.087 9.087h94.659c1.151 0 2.246-.222 3.259-.611z" fill="#65d33c"/><path d="m435.046 253.846c-11 11-24.25 23.25-24.25 23.25s-5.982 3.798-11.63.784v9.745c0 5.019 4.068 9.087 9.087 9.087h94.659c1.149 0 2.245-.222 3.258-.611-.353-.558-.767-1.089-1.253-1.575l-66.935-66.935c.001-.001 8.064 15.255-2.936 26.255z" fill="#55bf28"/><path d="m498.013 241.199c-3.549-3.549-9.302-3.549-12.851 0l-55.512 55.512h73.263c5.019 0 9.087-4.068 9.087-9.087v-32.438z" fill="#89e56a"/><path d="m481.685 215.2c0 7.208-5.843 13.05-13.051 13.05s-13.051-5.843-13.051-13.05c0-7.208 5.843-13.051 13.051-13.051s13.051 5.844 13.051 13.051z" fill="#ffdd40"/><path d="m477.566 212.748c0 3.368-2.73 6.098-6.098 6.098s-6.098-2.73-6.098-6.098 2.73-6.098 6.098-6.098c3.367-.001 6.098 2.73 6.098 6.098z" fill="#fceca9"/><g><path d="m377.803 340.818c-7.433 4.292-16.938 1.745-21.23-5.688l-143.659-248.825c-4.292-7.434-1.745-16.938 5.688-21.23 7.433-4.291 16.938-1.745 21.23 5.688l143.659 248.825c4.292 7.434 1.745 16.939-5.688 21.23z" fill="#e9efff"/></g><path d="m272.844 157.791c5.35-3.089 11.611-3.145 16.816-.721l-49.829-86.306c-4.292-7.433-13.797-9.98-21.23-5.688s-9.98 13.796-5.689 21.23l50.845 88.065c-.28-6.57 3-13.066 9.087-16.58z" fill="#d3dcfb"/><path d="m380.719 0h100.391c8.872 0 16.13 7.259 16.13 16.13v71.346c0 8.872-7.259 16.13-16.13 16.13h-14.358c-1.601 0-3.094.806-3.972 2.145l-9.887 15.076c-2.403 3.664-7.774 3.664-10.177 0l-9.887-15.076c-.878-1.339-2.371-2.145-3.972-2.145h-48.14c-8.872 0-16.13-7.259-16.13-16.131v-71.345c.001-8.871 7.26-16.13 16.132-16.13z" fill="#ffdd40"/><g><path d="m408.319 87.476v-71.346c0-8.872 7.259-16.13 16.13-16.13h-43.73c-8.872 0-16.13 7.259-16.13 16.13v71.346c0 8.872 7.259 16.131 16.13 16.131h43.73c-8.872-.001-16.13-7.259-16.13-16.131z" fill="#ffb332"/></g><g><path d="m466.9 34.554h-51.012c-4.277 0-7.745-3.467-7.745-7.745s3.467-7.744 7.745-7.744h51.012c4.277 0 7.744 3.467 7.744 7.744s-3.467 7.745-7.744 7.745z" fill="#fcf9eb"/></g><g><path d="m466.9 59.547h-71.971c-4.277 0-7.745-3.467-7.745-7.744s3.467-7.744 7.745-7.744h71.971c4.277 0 7.744 3.467 7.744 7.744s-3.467 7.744-7.744 7.744z" fill="#fceca9"/></g><g><path d="m466.9 84.542h-71.971c-4.277 0-7.745-3.467-7.745-7.744s3.467-7.744 7.745-7.744h71.971c4.277 0 7.744 3.467 7.744 7.744.001 4.276-3.467 7.744-7.744 7.744z" fill="#fceca9"/></g><g fill="#47477f"><path d="m427.176 430.804c-11.701-24.856-35.959-60.907-76.924-56.031-58.262 6.935-205.957 14.661-76.414 135.529 60.66-7.114 114.542-36.378 153.338-79.498z"/><path d="m20.224 169.418c14.476 98.956 134.422-52.416 140.723-85.723 3.771-19.935-10.635-31.068-23.423-36.908-52.239 25.543-94.037 69.123-117.3 122.631z"/></g></g></svg>