<svg id="Capa_1" enable-background="new 0 0 511.999 511.999" height="512" viewBox="0 0 511.999 511.999" width="512" xmlns="http://www.w3.org/2000/svg"><g><path d="m300.26 156.103h-219.015c-7.448 0-13.486 6.038-13.486 13.486v321.424c0 7.448 6.038 13.486 13.486 13.486h109.508 28.5 5.289l6.5-7.5v-159.928h77.697l5.008-3.572v-163.91c-.001-7.448-6.039-13.486-13.487-13.486z" fill="#e28086"/><g fill="#f4fbff"><path d="m426.724 447.499h-207.471c-15.74 0-28.5 12.76-28.5 28.5s12.76 28.5 28.5 28.5h207.472v-57z"/><path d="m426.724 375.654h-207.471c-15.74 0-28.5 12.76-28.5 28.5s12.76 28.5 28.5 28.5h207.472v-57z"/><path d="m426.724 303.654h-207.471c-15.74 0-28.5 12.76-28.5 28.5s12.76 28.5 28.5 28.5h207.472v-57z"/></g><path d="m228.252 475.999c0-15.74 12.76-28.5 28.5-28.5h-37.5c-15.74 0-28.5 12.76-28.5 28.5s12.76 28.5 28.5 28.5h37.5c-15.74 0-28.5-12.76-28.5-28.5z" fill="#e4f6ff"/><path d="m228.252 404.154c0-15.74 12.76-28.5 28.5-28.5h-37.5c-15.74 0-28.5 12.76-28.5 28.5s12.76 28.5 28.5 28.5h37.5c-15.74 0-28.5-12.76-28.5-28.5z" fill="#e4f6ff"/><path d="m228.252 332.154c0-15.74 12.76-28.5 28.5-28.5h-37.5c-15.74 0-28.5 12.76-28.5 28.5s12.76 28.5 28.5 28.5h37.5c-15.74 0-28.5-12.76-28.5-28.5z" fill="#e4f6ff"/><path d="m67.759 169.589v321.424c0 7.448 6.038 13.486 13.486 13.486h31.486v-348.396h-31.486c-7.449 0-13.486 6.038-13.486 13.486z" fill="#dd636e"/><path d="m90.245 491.013v-321.424c0-7.448 6.038-13.486 13.486-13.486h-22.486c-7.448 0-13.486 6.038-13.486 13.486v321.424c0 7.448 6.038 13.486 13.486 13.486h22.486c-7.449 0-13.486-6.038-13.486-13.486z" fill="#da4a54"/><path d="m275.704 213.395h-124.931c-4.441 0-8.041 3.6-8.041 8.041v46.209c0 4.441 3.6 8.041 8.041 8.041h124.932c4.441 0 8.041-3.6 8.041-8.041v-46.209c0-4.441-3.6-8.041-8.042-8.041z" fill="#f4fbff"/><path d="m178.868 267.645v-46.209c0-4.441 3.6-8.041 8.041-8.041h-36.136c-4.441 0-8.041 3.6-8.041 8.041v46.209c0 4.441 3.6 8.041 8.041 8.041h36.136c-4.441 0-8.041-3.6-8.041-8.041z" fill="#e4f6ff"/><circle cx="190.752" cy="110.5" fill="#90d8f9" r="16"/><path d="m195.439 121.814c-6.248-6.249-6.248-16.379 0-22.627 1.011-1.011 2.132-1.841 3.314-2.525-6.12-3.542-14.077-2.712-19.314 2.525-6.248 6.248-6.248 16.379 0 22.627 5.237 5.237 13.194 6.067 19.314 2.525-1.182-.684-2.303-1.514-3.314-2.525z" fill="#90d8f9"/><g><path d="m217.976 84.276c-7.271-7.272-16.94-11.276-27.224-11.276s-19.952 4.004-27.224 11.276c-2.929 2.929-7.678 2.929-10.606 0-2.929-2.929-2.929-7.677 0-10.606 10.105-10.105 23.54-15.67 37.83-15.67s27.726 5.565 37.83 15.67c2.929 2.929 2.929 7.678 0 10.606-2.928 2.929-7.677 2.93-10.606 0z" fill="#90d8f9"/></g><g><path d="m131.709 64.063c-2.929-2.929-2.929-7.678 0-10.606 32.557-32.557 85.53-32.557 118.087 0 2.929 2.929 2.929 7.678 0 10.606-2.929 2.929-7.678 2.929-10.606 0-26.708-26.707-70.165-26.708-96.874 0-2.929 2.928-7.679 2.929-10.607 0z" fill="#90d8f9"/></g><g><path d="m260.402 43.85c-18.604-18.604-43.34-28.85-69.65-28.85s-51.045 10.246-69.65 28.85c-2.929 2.929-7.678 2.929-10.606 0-2.929-2.929-2.929-7.678 0-10.606 21.437-21.438 49.94-33.244 80.256-33.244s58.819 11.806 80.256 33.244c2.929 2.929 2.929 7.678 0 10.606-2.928 2.929-7.677 2.93-10.606 0z" fill="#90d8f9"/></g><g><path d="m436.74 511.999h-217.488c-19.851 0-36-16.149-36-36s16.149-36 36-36h217.488c4.142 0 7.5 3.358 7.5 7.5s-3.358 7.5-7.5 7.5h-217.488c-11.58 0-21 9.42-21 21s9.42 21 21 21h217.488c4.142 0 7.5 3.358 7.5 7.5s-3.358 7.5-7.5 7.5z" fill="#b3e59f"/></g><g><path d="m436.74 440.154h-217.488c-19.851 0-36-16.149-36-36s16.149-36 36-36h217.488c4.142 0 7.5 3.358 7.5 7.5s-3.358 7.5-7.5 7.5h-217.488c-11.58 0-21 9.42-21 21s9.42 21 21 21h217.488c4.142 0 7.5 3.358 7.5 7.5s-3.358 7.5-7.5 7.5z" fill="#90d8f9"/></g><g><path d="m436.74 368.154h-217.488c-19.851 0-36-16.149-36-36s16.149-36 36-36h217.488c4.142 0 7.5 3.358 7.5 7.5s-3.358 7.5-7.5 7.5h-217.488c-11.58 0-21 9.42-21 21s9.42 21 21 21h217.488c4.142 0 7.5 3.358 7.5 7.5s-3.358 7.5-7.5 7.5z" fill="#ffaa5b"/></g></g></svg>