<svg id="Layer_1" enable-background="new 0 0 512 512" height="512" viewBox="0 0 512 512" width="512" xmlns="http://www.w3.org/2000/svg"><g><path d="m448.799 512c-25.989 0-47.133-21.144-47.133-47.133 0-68.21 31.111-221.443 32.436-227.933 1.426-6.984 7.569-12 14.697-12s13.271 5.017 14.697 12c1.324 6.49 32.437 159.722 32.437 227.933 0 25.989-21.144 47.133-47.134 47.133z" fill="#ec8600"/><path d="m448.799 512v-287.067c7.128 0 13.271 5.017 14.697 12 1.324 6.49 32.437 159.722 32.437 227.933 0 25.99-21.144 47.134-47.134 47.134z" fill="#ff4d05"/><path d="m207.8 94.267h-64.267c-8.284 0-15-6.716-15-15v-64.267c0-8.284 6.716-15 15-15h64.267c8.284 0 15 6.716 15 15v64.267c0 8.284-6.716 15-15 15z" fill="#ecbe00"/><path d="m222.8 79.267v-64.267c0-8.284-6.716-15-15-15h-32.133v94.267h32.133c8.284 0 15-6.716 15-15z" fill="#ec8600"/><path d="m320.27 287.067c-3.903 0-7.74-1.524-10.609-4.394l-85.794-85.793-37.593 37.593c-2.813 2.813-6.628 4.394-10.606 4.394s-7.794-1.581-10.606-4.394l-37.594-37.593-85.794 85.793c-4.29 4.291-10.742 5.574-16.347 3.252s-9.26-7.792-9.26-13.858v-192.8c0-8.284 6.716-15 15-15h289.2c8.284 0 15 6.716 15 15v192.8c0 6.067-3.654 11.537-9.26 13.858-1.856.769-3.805 1.142-5.737 1.142z" fill="#5ff9fe"/><path d="m186.273 234.473 37.593-37.593 85.794 85.793c2.869 2.87 6.706 4.394 10.609 4.394 1.933 0 3.882-.374 5.737-1.142 5.605-2.322 9.26-7.792 9.26-13.858v-192.8c0-8.284-6.716-15-15-15h-144.6v174.6c3.98 0 7.795-1.581 10.607-4.394z" fill="#00dde7"/><path d="m320.267 512h-72.3c-6.253 0-11.85-3.878-14.045-9.733l-48.2-128.533c-1.728-4.606-1.086-9.768 1.716-13.811 2.803-4.043 7.409-6.456 12.329-6.456h72.3c6.253 0 11.85 3.878 14.045 9.733l48.2 128.533c1.728 4.606 1.086 9.768-1.716 13.811-2.803 4.043-7.409 6.456-12.329 6.456z" fill="#ec8600"/><path d="m103.366 512h-72.3c-4.92 0-9.526-2.413-12.329-6.456-2.802-4.043-3.443-9.205-1.716-13.811l48.2-128.533c2.195-5.854 7.792-9.733 14.045-9.733h72.3c4.92 0 9.526 2.413 12.329 6.456 2.802 4.043 3.443 9.205 1.716 13.811l-48.2 128.533c-2.195 5.855-7.792 9.733-14.045 9.733z" fill="#ecbe00"/><path d="m320.267 319.2h-64.267c-3.979 0-7.794-1.581-10.606-4.394l-80.333-80.333c-5.858-5.858-5.858-15.355 0-21.213l48.199-48.2c2.813-2.813 6.628-4.394 10.606-4.394s7.794 1.58 10.606 4.394l96.4 96.4c2.813 2.813 4.394 6.628 4.394 10.606v32.134c.001 8.284-6.715 15-14.999 15z" fill="#00366d"/><path d="m461.593 71.434c-2.727-4.453-7.572-7.167-12.793-7.167s-10.066 2.715-12.793 7.167c-5.159 8.427-50.407 83.397-50.407 120.299 0 34.849 28.352 63.2 63.2 63.2s63.2-28.351 63.2-63.2c0-36.901-45.248-111.872-50.407-120.299z" fill="#00366d"/><path d="m256 319.2h-224.934c-8.284 0-15-6.716-15-15v-32.133c0-3.978 1.58-7.793 4.394-10.606l96.4-96.4c2.813-2.813 6.628-4.394 10.606-4.394s7.794 1.581 10.606 4.394l128.533 128.534c4.29 4.29 5.573 10.742 3.252 16.347-2.321 5.603-7.79 9.258-13.857 9.258z" fill="#1861c8"/><path d="m269.858 309.94c2.321-5.605 1.038-12.057-3.252-16.347l-90.94-90.94v116.547h80.334c6.067 0 11.536-3.655 13.858-9.26z" fill="#004c9c"/><path d="m336.333 383.467h-321.333c-8.284 0-15-6.716-15-15v-64.267c0-8.284 6.716-15 15-15h321.333c8.284 0 15 6.716 15 15v64.267c0 8.284-6.716 15-15 15z" fill="#ffd845"/><path d="m351.333 368.467v-64.267c0-8.284-6.716-15-15-15h-160.666v94.267h160.667c8.283 0 14.999-6.716 14.999-15z" fill="#ecbe00"/><path d="m461.593 71.434c-2.727-4.453-7.572-7.167-12.793-7.167v190.667c34.849 0 63.2-28.351 63.2-63.2 0-36.902-45.248-111.873-50.407-120.3z" fill="#01223c"/></g></svg>