<?xml version="1.0" encoding="iso-8859-1"?>
<!-- Generator: Adobe Illustrator 19.0.0, SVG Export Plug-In . SVG Version: 6.00 Build 0)  -->
<svg version="1.1" id="Layer_1" xmlns="http://www.w3.org/2000/svg" xmlns:xlink="http://www.w3.org/1999/xlink" x="0px" y="0px"
	 viewBox="0 0 512.004 512.004" style="enable-background:new 0 0 512.004 512.004;" xml:space="preserve">
<g>
	<polygon style="fill:#ECF0F1;" points="298.669,42.667 298.669,59.733 213.335,59.733 213.335,42.667 51.202,42.667 
		51.202,315.733 460.802,315.733 460.802,42.667 	"/>
	<path style="fill:#F18D46;" d="M401.069,256c-20.659-30.993-48.956-76.8-110.933-76.8c-45.508,0-86.374,29.943-102.4,59.733
		l8.533,51.2l196.267-8.533L401.069,256z"/>
	<path style="fill:#177F41;" d="M460.802,213.333c-56.141,51.652-138.385,59.733-221.867,59.733l8.533,42.667h213.333V213.333z"/>
	<path style="fill:#24AE5F;" d="M281.602,315.733c-70.605-85.615-113.707-112.068-230.4-119.467v119.467H281.602z"/>
	<path style="fill:#BDC3C7;" d="M324.269,145.067c-4.719,0-8.533-3.823-8.533-8.533c0-13.397,12.203-25.6,25.6-25.6h9.515
		c4.318-18.722,22.246-34.133,41.685-34.133c22.332,0,42.667,20.335,42.667,42.667c0,4.71-3.814,8.533-8.533,8.533
		s-8.533-3.823-8.533-8.533c0-12.919-12.681-25.6-25.6-25.6s-25.6,12.681-25.6,25.6c0,4.71-3.814,8.533-8.533,8.533h-17.067
		c-4.07,0-8.533,4.463-8.533,8.533C332.802,141.244,328.988,145.067,324.269,145.067"/>
	<path style="fill:#24AE5F;" d="M196.269,136.533c0,23.561-19.106,42.667-42.667,42.667s-42.667-19.106-42.667-42.667
		s19.106-42.667,42.667-42.667S196.269,112.973,196.269,136.533"/>
	<path style="fill:#805333;" d="M168.169,130.5c-3.337-3.337-8.73-3.337-12.066,0l-2.5,2.5l-2.5-2.5
		c-3.337-3.337-8.73-3.337-12.066,0c-3.337,3.337-3.337,8.73,0,12.066l6.033,6.033v124.467c0,4.71,3.814,8.533,8.533,8.533
		s8.533-3.823,8.533-8.533V148.599l6.033-6.033C171.505,139.23,171.505,133.837,168.169,130.5"/>
	<g>
		<path style="fill:#ECF0F1;" d="M341.336,512.004c-3.635,0-6.997-2.338-8.141-5.99l-24.047-76.8
			c-1.417-4.497,1.084-9.284,5.589-10.692c4.514-1.425,9.284,1.092,10.692,5.598l24.047,76.8c1.408,4.497-1.092,9.284-5.589,10.692
			C343.034,511.876,342.181,512.004,341.336,512.004"/>
		<path style="fill:#ECF0F1;" d="M162.136,512.004c-0.845,0-1.698-0.128-2.551-0.393c-4.497-1.408-6.997-6.195-5.589-10.692
			l24.047-76.8c1.408-4.506,6.153-7.023,10.692-5.598c4.506,1.408,6.997,6.195,5.589,10.692l-24.047,76.8
			C169.134,509.666,165.772,512.004,162.136,512.004"/>
	</g>
	<g>
		<path style="fill:#805333;" d="M331.373,426.667h-30.208c-0.572,0-1.075-0.35-1.263-0.887l-18.295-58.846h34.133l17.596,56.934
			C333.83,425.225,332.823,426.667,331.373,426.667"/>
		<path style="fill:#805333;" d="M172.1,426.667h30.208c0.572,0,1.075-0.35,1.263-0.887l18.295-58.846h-34.133l-17.596,56.934
			C169.642,425.225,170.649,426.667,172.1,426.667"/>
	</g>
	<polygon style="fill:#51301A;" points="170.669,375.471 341.335,375.471 341.335,332.804 170.669,332.804 	"/>
	<g>
		<polygon style="fill:#805333;" points="8.535,341.338 503.469,341.338 503.469,307.204 8.535,307.204 		"/>
		<polygon style="fill:#805333;" points="213.335,59.738 298.669,59.738 298.669,8.538 213.335,8.538 		"/>
	</g>
	<path style="fill:#51301A;" d="M332.802,17.067h-153.6c-4.719,0-8.533-3.823-8.533-8.533S174.483,0,179.202,0h153.6
		c4.719,0,8.533,3.823,8.533,8.533S337.521,17.067,332.802,17.067"/>
</g>
<g>
</g>
<g>
</g>
<g>
</g>
<g>
</g>
<g>
</g>
<g>
</g>
<g>
</g>
<g>
</g>
<g>
</g>
<g>
</g>
<g>
</g>
<g>
</g>
<g>
</g>
<g>
</g>
<g>
</g>
</svg>
