<svg id="Layer_3" enable-background="new 0 0 64 64" height="512" viewBox="0 0 64 64" width="512" xmlns="http://www.w3.org/2000/svg"><g><g><path d="m52.707 41.707-1.415-1.415 4.757-4.757c2.547-2.546 3.949-5.933 3.949-9.535l.001-1.741 2 .001-.001 1.74c0 4.136-1.61 8.024-4.534 10.949z" fill="#a8b0bc"/></g><path d="m46 33v-31h-34l-10 10v50h44v-21" fill="#e7e4dd"/><path d="m12 2v10h-10" fill="#d5cec2"/><path d="m15 8h18v6h-18z" fill="#8892a0"/><circle cx="10" cy="22" fill="#c66b60" r="4"/><g><path d="m16.999 25h23.999v2h-23.999z" fill="#8892a0"/></g><g><path d="m16.999 21h23.999v2h-23.999z" fill="#8892a0"/></g><circle cx="10" cy="34" fill="#669e4f" r="4"/><g><path d="m16.999 33h21.999v2h-21.999z" fill="#8892a0"/></g><g><path d="m16.999 37h17.999v2h-17.999z" fill="#8892a0"/></g><path d="m39.101 31.172h19.799v5.657h-19.799z" fill="#c7e2fc" transform="matrix(.707 -.707 .707 .707 -9.69 44.607)"/><path d="m40 39-8 8 4 4 8-8" fill="#758190"/><path d="m32 47-3 5 2 2 5-3" fill="#8892a0"/><g><path d="m26.377 53.499h4.243v2.001h-4.243z" fill="#a8b0bc" transform="matrix(.707 -.707 .707 .707 -30.193 36.124)"/></g><path d="m54 25 3.172-3.172c.53-.53 1.25-.828 2-.828 1.562 0 2.828 1.266 2.828 2.828 0 .75-.298 1.47-.828 2l-3.172 3.172" fill="#758190"/><g><path d="m39.099 32.999h19.799v2.001h-19.799z" fill="#243242" transform="matrix(.707 -.707 .707 .707 -9.688 44.616)"/></g><g><path d="m4.999 55h19.999v2h-19.999z" fill="#8892a0"/></g><g><path d="m4.999 51h19.999v2h-19.999z" fill="#8892a0"/></g><g><path d="m4.999 47h19.999v2h-19.999z" fill="#8892a0"/></g><g><path d="m4.999 43h9.999v2h-9.999z" fill="#8892a0"/></g><g><path d="m9.999 36c-.054 0-.107-.004-.161-.013-.316-.051-.59-.252-.733-.54l-1-2 1.788-.894.38.759 5.019-5.019 1.415 1.415-6 6c-.19.188-.445.292-.708.292z" fill="#96cc7f"/></g><path d="m15 8v6h11.578c1.915-1.5 3.336-3.59 3.999-6z" fill="#a8b0bc"/><path d="m13.262 19.697c-.724-1.024-1.912-1.697-3.262-1.697-2.209 0-4 1.791-4 4 0 1.171.512 2.214 1.313 2.945 2.903-.345 5.255-2.466 5.949-5.248z" fill="#e47c6e"/><g fill="#a8b0bc"><path d="m32.503 46.497c.254.015.505.039.763.039 3.908 0 7.401-1.76 9.743-4.526l-3.009-3.01z"/><path d="m55.261 26.261c2.669-.188 5.001-1.583 6.455-3.648-.456-.951-1.419-1.613-2.544-1.613-.75 0-1.47.298-2 .828l-3.172 3.172z"/></g></g></svg>