<svg id="Capa_1" enable-background="new 0 0 512 512" height="512" viewBox="0 0 512 512" width="512" xmlns="http://www.w3.org/2000/svg"><g><g><circle cx="91" cy="331" fill="#ffe1ba" r="60"/><path d="m151 331c0-33.091-26.909-60-60-60v120c33.091 0 60-26.909 60-60z" fill="#ffbfab"/><path d="m91 391c-49.629 0-91 41.371-91 91v30h91 90v-30c0-49.629-40.371-91-90-91z" fill="#47568c"/><path d="m181 512v-30c0-49.629-40.371-91-90-91v121z" fill="#29376d"/><circle cx="421" cy="331" fill="#ffe1ba" r="60"/><path d="m481 331c0-33.091-26.909-60-60-60v120c33.091 0 60-26.909 60-60z" fill="#ffbfab"/><path d="m512 482c0-49.629-41.371-91-91-91s-90 41.371-90 91v30h90 91z" fill="#47568c"/><path d="m512 512v-30c0-49.629-41.371-91-91-91v121z" fill="#29376d"/></g><path d="m256 0c-74.443 0-135 60.557-135 135v30c0 74.443 60.557 135 135 135s135-60.557 135-135v-30c0-74.443-60.557-135-135-135z" fill="#66b3ff"/><path d="m256 300c74.443 0 135-60.557 135-135v-30c0-74.443-60.557-135-135-135z" fill="#4d88ff"/><path d="m241 210h30v30h-30z" fill="#edf5ff"/><path d="m301 105c0 14.24-6.86 27.79-18.33 36.24-7.3 5.39-11.67 14-11.67 23.06v15.7h-30v-15.7c0-14.52 5.46-28.47 15-39.14 2.65-2.97 5.62-5.68 8.88-8.08 3.88-2.85 6.12-7.26 6.12-12.08 0-8.28-6.72-15-15-15s-15 6.72-15 15v15h-30v-15c0-24.81 20.19-45 45-45s45 20.19 45 45z" fill="#edf5ff"/><g fill="#d5e8fe"><path d="m256 210h15v30h-15z"/><path d="m301 105c0 14.24-6.86 27.79-18.33 36.24-7.3 5.39-11.67 14-11.67 23.06v15.7h-15v-54.84c2.65-2.97 5.62-5.68 8.88-8.08 3.88-2.85 6.12-7.26 6.12-12.08 0-8.28-6.72-15-15-15v-30c24.81 0 45 20.19 45 45z"/></g></g></svg>