<svg id="Capa_1" enable-background="new 0 0 512 512" height="512" viewBox="0 0 512 512" width="512" xmlns="http://www.w3.org/2000/svg" xmlns:xlink="http://www.w3.org/1999/xlink"><linearGradient id="SVGID_1_" gradientUnits="userSpaceOnUse" x1="256" x2="256" y1="512" y2="0"><stop offset="0" stop-color="#ffc8d1"/><stop offset="1" stop-color="#fff6f7"/></linearGradient><linearGradient id="SVGID_2_" gradientUnits="userSpaceOnUse" x1="256" x2="256" y1="105" y2="407"><stop offset="0" stop-color="#fd3a84"/><stop offset="1" stop-color="#ffa68d"/></linearGradient><g><circle cx="256" cy="256" fill="url(#SVGID_1_)" r="256"/><g><g><path d="m143.614 156.174c-3.953 4.446-8.041 8.781-11.455 13.674l51.907 51.907c7.894-16.499 21.19-29.796 37.689-37.689l-51.907-51.907c-4.894 3.415-9.227 7.502-13.674 11.456l-18.247-18.247c-3.47-3.47-9.091-3.47-12.56 0s-3.47 9.091 0 12.56zm224.772 199.652c3.953-4.447 8.041-8.779 11.455-13.674l-51.907-51.907c-7.894 16.499-21.19 29.796-37.689 37.689l51.907 51.907c4.893-3.414 9.228-7.502 13.674-11.455l18.247 18.247c3.47 3.469 9.091 3.47 12.56 0s3.47-9.091 0-12.56zm-192.327-99.826c0-5.328.573-10.521 1.572-15.559l-55.024-55.023c-11.201 21.083-17.607 45.089-17.607 70.582s6.406 49.499 17.607 70.583l55.024-55.023c-.999-5.039-1.572-10.232-1.572-15.56zm79.941-79.941c5.328 0 10.521.573 15.559 1.572l55.023-55.023c-21.083-11.202-45.089-17.608-70.582-17.608s-49.499 6.406-70.583 17.607l55.023 55.023c5.039-.998 10.232-1.571 15.56-1.571zm0 159.882c-5.328 0-10.521-.573-15.559-1.572l-55.023 55.024c21.083 11.201 45.089 17.607 70.582 17.607s49.499-6.406 70.583-17.607l-55.023-55.024c-5.039.999-10.232 1.572-15.56 1.572zm133.393-150.524-55.024 55.023c.999 5.039 1.572 10.231 1.572 15.559s-.573 10.521-1.572 15.559l55.024 55.023c11.201-21.082 17.607-45.088 17.607-70.581s-6.406-49.499-17.607-70.583zm-61.459 36.338 51.907-51.907c-3.414-4.895-7.502-9.228-11.455-13.674l18.247-18.247c3.47-3.47 3.47-9.091 0-12.56s-9.091-3.47-12.56 0l-18.247 18.247c-4.446-3.953-8.779-8.041-13.674-11.456l-51.907 51.907c16.499 7.895 29.795 21.191 37.689 37.69zm-143.868 68.49-51.907 51.907c3.414 4.895 7.502 9.228 11.455 13.674l-18.247 18.247c-3.47 3.47-3.47 9.091 0 12.56s9.09 3.47 12.56 0l18.247-18.247c4.446 3.953 8.779 8.041 13.674 11.455l51.907-51.907c-16.499-7.894-29.795-21.19-37.689-37.689z" fill="url(#SVGID_2_)"/></g></g></g></svg>